# xmcd
#
# Track frame offsets: 
#        150
#        12889
#        24745
#        38736
#        52172
#        64806
#        70621
#        82919
#        97683
#        109563
#        120683
#        133873
#        142506
#        155239
#        168225
#        181837
#        195075
#        209653
#        221417
#        233008
#        246700
#        261173
#        272260
#        286120
#        300204
#        312885
#        324068
#
# Disc length: 4451 seconds
#
# Revision: 0
# Processed by: cddbd v1.5.2PL0 Copyright (c) Steve Scherf et al.
# Submitted via: ExactAudioCopyFreeDBPlugin 1.0
#
DISCID=6311611b
DTITLE=Various Artist - Really the Blues - Disc 27
DYEAR=1900
DGENRE=50s
TTITLE0=Lloyd Fatman - Giddy Up
TTITLE1=Memphis Minnie - Broken Heart
TTITLE2=Pete Lewis - Crying with the Rising Sun
TTITLE3=Bill Triglia - Loo Pa Doo
TTITLE4=Varetta Dillard - Tell Me Why
TTITLE5=Dick Twardzik - Cool Blues (excerpt)
TTITLE6=Herbie Nichols - Who's Blues
TTITLE7=Roy Hawkins and T-Bone Walker - Would You?
TTITLE8=Larks - Honey in the Rock
TTITLE9=Gospel Twins - I Love My God
TTITLE10=Clyde McPhatter - Deep Sea Blues
TTITLE11=Tennessee Ernie Ford - Hambone
TTITLE12=Ray Charles - The Snow Is Falling
TTITLE13=Brother Claude Ely - Ain't No Grave Gonna Hold My Body Down
TTITLE14=Guitar Slim - Story of My Life
TTITLE15=Hank Snow - I Don't Hurt Anymore
TTITLE16=Little Johnny Jones - Chicago Blues
TTITLE17=Bob Angliano - Bye and Bye
TTITLE18=Reverend Utah Smith - Two Wings
TTITLE19=Memphis Ma Rainey - Call Me Anything But Call Me
TTITLE20=Sonny Parker - Jealous Blues
TTITLE21=Charline Arthur - I Was Wrong
TTITLE22=Ray Charles - Misery in My Heart
TTITLE23=Link Davis - Lonely Heart
TTITLE24=Jack Teagarden - I Gotta Right to Sing the Blues
TTITLE25=Sugar Boy Crawford - Overboard
TTITLE26=Frank Sinatra - I'm Confessin'
EXTD=
EXTT0=
EXTT1=
EXTT2=
EXTT3=
EXTT4=
EXTT5=
EXTT6=
EXTT7=
EXTT8=
EXTT9=
EXTT10=
EXTT11=
EXTT12=
EXTT13=
EXTT14=
EXTT15=
EXTT16=
EXTT17=
EXTT18=
EXTT19=
EXTT20=
EXTT21=
EXTT22=
EXTT23=
EXTT24=
EXTT25=
EXTT26=
PLAYORDER=
